<mxfile host="app.diagrams.net" modified="2024-05-20T13:40:57.949Z" agent="Mozilla/5.0 (Macintosh; Intel Mac OS X 10_15_7) AppleWebKit/605.1.15 (KHTML, like Gecko) Version/17.4.1 Safari/605.1.15" etag="WH8jGgmNDPCU0PsAj5tG" version="24.4.4" type="device">
  <diagram name="Page-1" id="HtgPdICzhimuXwr5ytAg">
    <mxGraphModel dx="1795" dy="1978" grid="0" gridSize="10" guides="1" tooltips="1" connect="1" arrows="1" fold="1" page="0" pageScale="1" pageWidth="827" pageHeight="1169" math="0" shadow="0">
      <root>
        <mxCell id="0" />
        <mxCell id="1" parent="0" />
        <mxCell id="Vl3L8AfMYOYFt9SZZ3iY-47" value="" style="rounded=0;whiteSpace=wrap;html=1;" vertex="1" parent="1">
          <mxGeometry x="-131" y="-176" width="1403" height="887" as="geometry" />
        </mxCell>
        <mxCell id="Vl3L8AfMYOYFt9SZZ3iY-31" value="" style="rounded=1;whiteSpace=wrap;html=1;" vertex="1" parent="1">
          <mxGeometry x="428" y="75" width="93" height="138" as="geometry" />
        </mxCell>
        <mxCell id="Vl3L8AfMYOYFt9SZZ3iY-27" value="" style="whiteSpace=wrap;html=1;verticalAlign=top;labelBackgroundColor=default;" vertex="1" parent="1">
          <mxGeometry x="695" y="17" width="519" height="244" as="geometry" />
        </mxCell>
        <mxCell id="Vl3L8AfMYOYFt9SZZ3iY-3" value="" style="rounded=1;whiteSpace=wrap;html=1;rotation=90;" vertex="1" parent="1">
          <mxGeometry x="-127.84" y="108" width="314.68" height="188.85" as="geometry" />
        </mxCell>
        <mxCell id="Vl3L8AfMYOYFt9SZZ3iY-23" style="edgeStyle=orthogonalEdgeStyle;rounded=0;orthogonalLoop=1;jettySize=auto;html=1;fontSize=12;startSize=8;endSize=8;" edge="1" parent="1" source="Vl3L8AfMYOYFt9SZZ3iY-17" target="Vl3L8AfMYOYFt9SZZ3iY-15">
          <mxGeometry relative="1" as="geometry" />
        </mxCell>
        <mxCell id="Vl3L8AfMYOYFt9SZZ3iY-17" value="" style="rounded=1;whiteSpace=wrap;html=1;" vertex="1" parent="1">
          <mxGeometry x="-53" y="189.5" width="165" height="155" as="geometry" />
        </mxCell>
        <mxCell id="Vl3L8AfMYOYFt9SZZ3iY-2" value="" style="shape=datastore;whiteSpace=wrap;html=1;" vertex="1" parent="1">
          <mxGeometry x="15.92" y="245" width="68.08" height="80" as="geometry" />
        </mxCell>
        <mxCell id="Vl3L8AfMYOYFt9SZZ3iY-4" value="Data Source" style="text;html=1;align=center;verticalAlign=middle;whiteSpace=wrap;rounded=0;fontSize=16;" vertex="1" parent="1">
          <mxGeometry x="-40.00000000000001" y="45" width="103" height="30" as="geometry" />
        </mxCell>
        <mxCell id="Vl3L8AfMYOYFt9SZZ3iY-25" style="edgeStyle=none;curved=1;rounded=0;orthogonalLoop=1;jettySize=auto;html=1;fontSize=12;startSize=8;endSize=8;" edge="1" parent="1" source="Vl3L8AfMYOYFt9SZZ3iY-5">
          <mxGeometry relative="1" as="geometry">
            <mxPoint x="430" y="120" as="targetPoint" />
          </mxGeometry>
        </mxCell>
        <mxCell id="Vl3L8AfMYOYFt9SZZ3iY-5" value="" style="sketch=0;outlineConnect=0;fontColor=#232F3E;gradientColor=none;fillColor=#232F3D;strokeColor=none;dashed=0;verticalLabelPosition=bottom;verticalAlign=top;align=center;html=1;fontSize=12;fontStyle=0;aspect=fixed;pointerEvents=1;shape=mxgraph.aws4.documents3;" vertex="1" parent="1">
          <mxGeometry x="15.92" y="90" width="39.46" height="54" as="geometry" />
        </mxCell>
        <mxCell id="Vl3L8AfMYOYFt9SZZ3iY-6" value="Source file" style="text;html=1;align=center;verticalAlign=middle;whiteSpace=wrap;rounded=0;fontSize=13;" vertex="1" parent="1">
          <mxGeometry x="-3.6899999999999995" y="146" width="88.39" height="13" as="geometry" />
        </mxCell>
        <mxCell id="Vl3L8AfMYOYFt9SZZ3iY-7" value="" style="shape=mxgraph.signs.nature.snowflake;html=1;pointerEvents=1;fillColor=#1ba1e2;strokeColor=#006EAF;verticalLabelPosition=bottom;verticalAlign=top;align=center;fontColor=#ffffff;" vertex="1" parent="1">
          <mxGeometry x="28.97999999999999" y="277" width="43" height="39" as="geometry" />
        </mxCell>
        <mxCell id="Vl3L8AfMYOYFt9SZZ3iY-8" value="Snowflake &amp;nbsp;DW" style="text;html=1;align=center;verticalAlign=middle;whiteSpace=wrap;rounded=0;fontSize=10;" vertex="1" parent="1">
          <mxGeometry x="12.96" y="319" width="74" height="30" as="geometry" />
        </mxCell>
        <mxCell id="Vl3L8AfMYOYFt9SZZ3iY-9" value="" style="shape=image;verticalLabelPosition=bottom;labelBackgroundColor=default;verticalAlign=top;aspect=fixed;imageAspect=0;image=data:image/png,iVBORw0KGgoAAAANSUhEUgAAAIYAAACCCAYAAACD6LCHAAAEDmlDQ1BrQ0dDb2xvclNwYWNlR2VuZXJpY1JHQgAAOI2NVV1oHFUUPpu5syskzoPUpqaSDv41lLRsUtGE2uj+ZbNt3CyTbLRBkMns3Z1pJjPj/KRpKT4UQRDBqOCT4P9bwSchaqvtiy2itFCiBIMo+ND6R6HSFwnruTOzu5O4a73L3PnmnO9+595z7t4LkLgsW5beJQIsGq4t5dPis8fmxMQ6dMF90A190C0rjpUqlSYBG+PCv9rt7yDG3tf2t/f/Z+uuUEcBiN2F2Kw4yiLiZQD+FcWyXYAEQfvICddi+AnEO2ycIOISw7UAVxieD/Cyz5mRMohfRSwoqoz+xNuIB+cj9loEB3Pw2448NaitKSLLRck2q5pOI9O9g/t/tkXda8Tbg0+PszB9FN8DuPaXKnKW4YcQn1Xk3HSIry5ps8UQ/2W5aQnxIwBdu7yFcgrxPsRjVXu8HOh0qao30cArp9SZZxDfg3h1wTzKxu5E/LUxX5wKdX5SnAzmDx4A4OIqLbB69yMesE1pKojLjVdoNsfyiPi45hZmAn3uLWdpOtfQOaVmikEs7ovj8hFWpz7EV6mel0L9Xy23FMYlPYZenAx0yDB1/PX6dledmQjikjkXCxqMJS9WtfFCyH9XtSekEF+2dH+P4tzITduTygGfv58a5VCTH5PtXD7EFZiNyUDBhHnsFTBgE0SQIA9pfFtgo6cKGuhooeilaKH41eDs38Ip+f4At1Rq/sjr6NEwQqb/I/DQqsLvaFUjvAx+eWirddAJZnAj1DFJL0mSg/gcIpPkMBkhoyCSJ8lTZIxk0TpKDjXHliJzZPO50dR5ASNSnzeLvIvod0HG/mdkmOC0z8VKnzcQ2M/Yz2vKldduXjp9bleLu0ZWn7vWc+l0JGcaai10yNrUnXLP/8Jf59ewX+c3Wgz+B34Df+vbVrc16zTMVgp9um9bxEfzPU5kPqUtVWxhs6OiWTVW+gIfywB9uXi7CGcGW/zk98k/kmvJ95IfJn/j3uQ+4c5zn3Kfcd+AyF3gLnJfcl9xH3OfR2rUee80a+6vo7EK5mmXUdyfQlrYLTwoZIU9wsPCZEtP6BWGhAlhL3p2N6sTjRdduwbHsG9kq32sgBepc+xurLPW4T9URpYGJ3ym4+8zA05u44QjST8ZIoVtu3qE7fWmdn5LPdqvgcZz8Ww8BWJ8X3w0PhQ/wnCDGd+LvlHs8dRy6bLLDuKMaZ20tZrqisPJ5ONiCq8yKhYM5cCgKOu66Lsc0aYOtZdo5QCwezI4wm9J/v0X23mlZXOfBjj8Jzv3WrY5D+CsA9D7aMs2gGfjve8ArD6mePZSeCfEYt8CONWDw8FXTxrPqx/r9Vt4biXeANh8vV7/+/16ffMD1N8AuKD/A/8leAvFY9bLAAAARGVYSWZNTQAqAAAACAACARIAAwAAAAEAAQAAh2kABAAAAAEAAAAmAAAAAAACoAIABAAAAAEAAACGoAMABAAAAAEAAACCAAAAAF8KdbEAAAFZaVRYdFhNTDpjb20uYWRvYmUueG1wAAAAAAA8eDp4bXBtZXRhIHhtbG5zOng9ImFkb2JlOm5zOm1ldGEvIiB4OnhtcHRrPSJYTVAgQ29yZSA2LjAuMCI+CiAgIDxyZGY6UkRGIHhtbG5zOnJkZj0iaHR0cDovL3d3dy53My5vcmcvMTk5OS8wMi8yMi1yZGYtc3ludGF4LW5zIyI+CiAgICAgIDxyZGY6RGVzY3JpcHRpb24gcmRmOmFib3V0PSIiCiAgICAgICAgICAgIHhtbG5zOnRpZmY9Imh0dHA6Ly9ucy5hZG9iZS5jb20vdGlmZi8xLjAvIj4KICAgICAgICAgPHRpZmY6T3JpZW50YXRpb24+MTwvdGlmZjpPcmllbnRhdGlvbj4KICAgICAgPC9yZGY6RGVzY3JpcHRpb24+CiAgIDwvcmRmOlJERj4KPC94OnhtcG1ldGE+Chle4QcAACBcSURBVHgB7Z0J8LXVGMDfiMiWsS9ZKpFkl20yWUeLXZOxRohpqDAY24Q2NHammijLF2kyphiEfBSyVBpSRFlKshRlKdvn/R393p57vvO+933vvd+93/f/7jNz/2d7nuc85znP2c95/5usqaFawlIDmQaul4WXwaUGkgaWhrE0hKIGloZRVMv8IvOR3LAukuA3rNsm4RDcNh7ELw2jSztzTKNC//Wvf6UcrXzCxpFgfJtY4P773/+uNtlkk+of//hHwyunI5zH5Tw3qRGWk89cK3MKq3oqMvrJ3jB+0gEqftNNN02VnyIKf0i/8sorq8033zzh3fjGN27o5AMZ/GM4Z7U0jFwjCw7bQ9zgBjdIFapLhXdVpGLHCocX9ECMF7fLXRpGl3bmlBZ7B7LEAL773e9WJ510UiPBP//5z8Y/znPDG94wodz+9revdt1112qrrbZqSPoYV0KuhVrCgjTw3//+dw0/wfDPf/7zNQ984AMZ4qf+Pfe5z13z5z//OeUT8zLPNnc5+Wza0mI9dQUlAWjR559/fvXHP/5xJgLVRlZddtllvYahmOHSMKI2VrBfw+tbxE37Ii7xZq+BON7jb6u8N7zhDdUrXvGKihWGy9A2acB56lOfWq1evboNpddEdGkYrepbfxJucYtbVEwkAfxtgGFhYK5E2vD6xC8No4+W1hOcth6lS7zrXW+y2cLSMLq0up6kMTwA7Gp29QYlw6lXIhOVYmkYE6ltvkTOK9jksvKdnxiOErlJFuOG+ifrZ4bmssSfSgNWvsagC1P8/sykq1cRZ5y7NIxxGppBOi3Yyp2EnYbQxYM08SbJI6dZDiW5RtZB2Bb8s5/9rDr77LOr//znP00u11xzTbXZZps14Rvd6EbVd77znerqq69u4hbhWRrGHLROj/HrX/+6estb3lIdf/zxE+c4yx5hnBDLoWSchmaQTo9x0UUXVaeddtoMuM2HxdIw5qBnVwksNyPc5CY3ScHo6o94+rvmGOLMyl0OJbPSZAcf5xgR5clPfnL1ghe8IM0lrn/96zfzDuYYZ555ZnXkkUdWf/rTnyJJ8s96krlWBtdGTG0YCqoLX/24Aq3FyyaldMZP46UxHPmARwuEFyCdflzp9OMC+Rgd+f4f4/9/S3jmk6dFuiH+bbfdtnr6059eJLn5zW9erVq1qjEM5VSGnMj0WO4cZ2h4ZkMJQsdlmUISz49WEwtmYYgD7G6Jj3wsEHh2xfKSVlee4hHG709e4kFX+rGhpBw5jeFZuZaV/JSLlYp+8rF8uV8ZLIPhWbhT9xhWAi3YHgHBUO6pp55aXXjhhcl/5zvfuXrMYx7THAahEPBVgLSE8QuEVQwTOHj+5S9/SXcad9xxx+qhD31o4iEO+dIdAyz52E6WB3nGbp3wCSeckFomdLmMykcZI52yzcK13PBSF218Lcc4vDb6IfHX1cAQqoCLwqKgVNrHP/7x6qCDDqp+//vfB8z/e+sbRdVRRx3VVJgIVKx8NDYr44c//GH12te+tvrKV74ieuPe8Y53rD772c9W9Y2nVHkYBbyodI1CZCsag3n/+99fveMd76iuuOIKkxv3Na95TfWmN72pOclEDgzHM4sGcUYey93GznTLpV7a8Cn71FBnOhVwXay+j5iujuFylawWqvO39dZbp+tmZBxpCUd+hGtjWHPb2962kx/5ffSjH0284AfAJ/8RzzW3PjLutttua371q19BkvhEN0UO/JOXoza+xAEZBf2f//zn19zlLndpylwbcIOblymGLfvjH//4hvZhD3vYmp/+9KeNLmBkPuZbcqeeY9C67Q4/8pGPVJ/85CfHGusvfvGLap999kmtEFqhFjDNB4z73e9+V73sZS8r9jzS6B588MHVN77xjdRrwCdCHGbozfrI+IUvfCGtDOgpAHjKJ/Keh9+eivy7fuN6kiGyXlcrQ6gCrpXIEPKBD3wgpFTVvvvuW+2yyy4p7sc//nHqvn/729+mMNu+zBfqlpmUTqFQPq5zAcZ/jEioe5rqbW97W+riye/YY49thhfwvvzlL1ePfOQjmzkGSoxG8oc//KE67LDDZJdcbkc94hGPSNvSX//616v3ve991d/+9reUhgHtscce1f3vf/8RPiMM5hD43ve+l4bLPlmxvV5a5vahjTi9DcPKkji2ICrg9NNPT5dOTWcuwTjtzaMnPOEJKen1r399ctkixlgwDHsdJ3la/nHHHSe7io2fI444onrc4x6X4sj/3ve+d/Wc5zyn+slPfpLifvCDH1S/+c1vqnvc4x5N69Y4cH/0ox9VGiYEe+65Z5LRFolR1d1xdfjhhyd+yFh3w9X97ne/hh8J5K2sGh78pwV55ny++MUvVt/85jdH9JTjGKahRsOgPDmoE+Lb5O5tGLZkmFlx+AUqJB780FNoFCgPmgc96EEVrd5egJvQpFEYBMTFAA1feumlsq8e8pCHVPe5z30SvoWhJe+www6NYTDZ/fvf/554wRd54AWQfz4Zft7zntdMUOGJgWBoGgZ00Gi4hPED8CMP6HCnBXioV5ar5gNfKjpW9pC8XKENlbP3HMMeQ4UgeF+FWMib3exmzUzfwiEwP/gD8CcMGIefTR9AXilQ/1GZhFEoPwAeVDTp4vz1r39Naf7xVBOe5oWMETA0AZ4YmsaG4Wkc4kzjqs8HP/jB1fbbbz8Nq4b2AQ94QNKdvJuE2qOeY5z+Xj2GRiFzFWQlqXiZRhcaFUl87FXEcylo5YDfJjR5wZO883ytaPnIHzfHjWnkZ1muuuqqmJT8MT0mYnjIEvUS0/v6oae88qpXJNU73/nO6pRTTunLYi08eHFxuF6hpJ7bPERs06/pvQwDxahsFQxj/TKLLvv/0kT6iONTOsf4nB90gncY4AleTBMHF+PI+Zh+05veVG+ry2PgCJRzXFnBH6foyLPkt+I0DoZJfhHEiXF9/JPQXaf5jhxi6+SyibuPvKoG6Oa//e1vj3CgImMFRb+I0LDJFAGe8EPRsfViaACytBkFc5ajjz662nLLLROuvAjA76yzzkrx+R/S5BmHDvC++tWvpp3WSMPcaaeddkoVBy3GCj3+SaDEg8oUov7HVbKNEX3LYxK5ehkGmbD7yPIzNwCFb3O7lMajmK6HMZGnPYbdd1SWeEwUP/ShDxns7UZl5j0Gu62lHVeYs9vK8pmV1bQQDcvKRy50T5pxVnYpP9LARTfigxf9JbpS3MjkEwb+EAo/LstGJjFDjYIMERSA1zRgj4E8tAD5TsMzTjRLPdo43vRAu+++e/XGN74xbdaBbznVo+FxvGKr1q9MhI3TLfETD7qIF/0lulJcYxhtBTj55JOrl770pWvR3vKWt0xx7C/gb7tggvXyGydcG32eMYVukxVc+eD6M940ecahahxPaC2z9LqHHHJIs7lHWYXoN25DcZuhhIpTOfipAOYT7Ga6E0ih2CVk/b/NNtuMlPFzn/tcdWy9EymuLdyuDeRYEYTZBOOyisBS05UFrZnLLO49OJTQY7T1FszmOQDbbrvtEsvIjwhkzIca+EVjy+cYbN0/85nPTMtgZWPuwmZbHGJe97rXVWzixV3SNjkt7/rsNoaBUWAQKh4/W8xxDsBY+u53v7vikokgHRXIkKNh/PKXv0y8ULoKQqHxeT8VyU6mPOSpi3FoGOySAvCzMlnmXnzxxaJXrDqcFDaRwcMmUTSM8847L+UPPwDe7qJKxrH+Yx/72LV6PBrI/vvvP3K5F2PhJ6hP+G5wUFdKA566cUpX7zquqVsLE4P0q4+300knyHWrGqGBjhO8eCJYd7trOCXkNBP8M844Yw0nffK71a1ulU5EPR2EoX5PCevJboMPXd2DJH7w5Fefc4ykc2qK3JYDnvCSH6el5q+LXMinjHe9611HcDgVBeAJH13i4Ide5IUfECfKAZ94Slw6XU3E68kfWmsDFMRC8VWXeHzLF15UjAVW6YajIaksDCQqxPi6xY0ca5t3dDE28aObVx5p9RxgzapVq0bKEuWFb9uRO0bKL+aBvz5LSYYG0ygXYXjDLzdejEVc6XA3NMNoJp+1IlJ3Sfdn128XSxp7C3SJcUIFHj/i6rJXnFSyhIvARRiHA+OZyL31rW+tGErMg3z5AboMWflpKOm18nFGYK+99mpOapEFsAtHPn7sBL761a9eS8bSWQQHdAcccEDaNcxlhD/lZoOu9FkC5FdPlmVE2A0gMGIYKrQkd91CUrRGQyAvNBX94Q9/uHNdj8J5dMPcAoXDDz7kzU8jI470V77ylem4vm1FgBwYJDe8qCToo1z4yQMjgT8npcjIVnEb1ENeVV/8qbg6CGhgyiidOjEc3ainGL+h+JvJ5ziB3b5W6VYidCiBCkGBTNbqLj0dw3/605+u+AYUCuQ+JV96edSjHpVOWD0fgY9gJRLWaPBzWYdJJQ92WD5fcskl1RZbbJFWSKwY7nvf+zanpFaI8sgffhoHFc5dD64KfOITn6guuOCC1Prr4aR69rOfnQzbQzvpkE1e8AbUSQqssD+9DcNyW2EoSkVbCSqR3UNWMG07ghoF+ICVaR648I7pLANp7XxySKCikAM8K400/JFnlJV05KV3YXlZkjHylY9lIw3ZgHrCmow+BVbYn8GGoVLUg0onbJquOLnbdmiG8qkIKzvnQ3wEwzleCYe4HL+NLseDVlzTkJVeZaX2Gr0NgwlkXKOjrKHABhGbTrY+w118xO3CaUtroyUesLIjPWnsh3ivI/JQXlzudoB3zjnnRPIV4+9tGGz8vPzlL18xBV8WpFsDI6uSbtRl6rrSgD0Y8xf8uABzMYA443XB6fqBF2lTYMCf3j0GPJm115s3A9ivjcpX5KblsTbXxcWw4vIYYBIpnLhL6xyLSoe3S2LmMq6GdKXRBdc5j374lYZMadrc3obB/gMf/jATLJKDLQ/LyCCG8XMRVTzSwYVeayauL0gnX+iG8JFOmihrLgN5eQUxlg+8SIefPZn4Mfic17hwvuoBHxl5Xffe9743/YsJJrkayDh+GIZGUe84p1Vc/qRiHA/SexsGmXDdfgnXaYAKPPfcc6cyDLlhIA4h8OSOh7fpxZnExXjZQWbzUf59+PQ2DJnJnGWbftPo4iig3SOKM0xcvMouTV+XvFwqQkO4rUvNedoqlY90/MokH/FMlw89SCyrZZdOvEldy6bLBp4926Q8pWO7397POFzzinHRP9gwJJaxlY+yUCBQco2TfhI35hXz68uLirSScZVJN/LJ46QFh7IT7tu9R765n3JoBNEwIx5nSwwR7P+wjM6Ht4gLr9JDbWQeAoMNg4IAZoQCeS7IHgdjLYUALCzp+onnYyFscROvcRHfB6wsd075Zy/vec97Rl7A5XyoPC4H8wIuXqJhbsB2OBNH+SpnlPme97xndeCBBzaHaaRplI7neZ5DwujA/PGr18jj0EMPHdnxjWklP9cNeXsLTGq8gw1DQVCOFctDYZ8emt7mrq4vAHPDikM0W6HK0OjaaM2PIYnng29+85tHblG10RFf37uouDxEHtz87juGIy/GgxHFFq3MrgJKeYvTt1zwKOG6bDUP9RDDkTYaQ0m+nF4+0Z16H4NWxqv0IcA3poDYMksKiTxJx5AA/DxfZCzuCxzVW1Hs4g6R2WcH5t83zz54Q3gq/zhd9cl3HM7EPUYX49IReRz3LJhdN+FxVkw6hqRySvmbLy2GIY2WHvcY7KEYo2lJpjmGy5O9ltJb0dhjiDutG4eRSXmpv0npS3RT9xg5Ux4t0+2yhf79738/uTwCihAr18oe13Ji4TUsVznw5mIxefLjqJ+nDtzVbAO7W4xiv/32a2iRGVr2bQTzMV/j+7jjaNBF1EcfnvPAmbrHoEJVsgLf+ta3bl66E8cr9TZQKbacNjzibfHixGUYFcwLMXshdmm9UyF+bPH2GPQaHMH7Mh9cJtMRzAdZx1W0dOBZ6eNoTFcX8hjiymMITRfu1IaBsksTHDKlkqjwOIwQ31aIcYq3Yq18WzI8BXG4kd4GbPpEsELgC30+2Yu44/wYUV968kVO9UcD0z8un3WdPrVh5AJyJM0PaOsFrAgqASPRgNoMBl7RaKx8WzLpAjzAzXsL0u1x4j4APY3PEpXX+yLy1O2STxw++laiZ7LrnAZchis+LJP3thgGO575GxxouvKP+gF3WhhsGFaqQuZzA96NcG2O5aEVzkdVACoB5Uir8FZ0V+GgsaewAmOPwZdvjjnmmHRPQr7MNSJIF3sM5PnWt77VGDF50OJjJUYe4/zx3UoXLobBb32FwYaRF8RKNZ6lIN+xwvLzrlFla1waFRXWZRTwJt28pI89BpNGL82Ybz6EKWPsMYir378036KQNm/J0m4s7mDDiK09+qPCMACNQDem23XHirabj3glP8ZQ6qpjntCV8tX4Yo8hbsSP/iiDPWCMy/2sygDKY/kIQ8umnMDkmAvNQsTPccWZpzvYMKJwKJrWznO9+G2tiJP7wePGN6BhyceKy2nEpYvXKOpHR9WjH/3o9MakrSIjH5az5senjJDZbWPxHOoM4xLHFj4QKzpFFP6sqm/IsyrT+Oyd+HAcTyF8Y8Ptdp49xF4PdgyPX/va16oDDzxwxJBI69IP6bOEqQwDQRCWT0FzVuJcok1ADoB4DM1tb+gAKssKa6Mz3oqBluUlb0moYO9nisfkl9m+k2Di/aA7xsUx9EH1l4uf8YxnSNLq0rtBq7ytiNcm3OEOd0hH3AShsWwX1Z+7jsC7XI7CgYhHmCsOi4apDYMCYOV+ZrFvgUrdskps4+FcxHQUyzuQPmDFYlzkzYEav3UF5JcPjxp2zFM809SBbsSdp3+wYeTW3bcAOZ0rBJZmdJvx1XpUAHhUJECXzmUheJUMK9LhN09cgQpAZlYwn/rUp4xuXPMy39vd7nbpC8Esf/uWVWaW0TCGUgLxopzRL43zkChHxMMf06CbdBI92DAUcqibC0yXjtAYRZ9POJPf6vqk8+EPf3jqgqMyc97KRnxUnMbE3II9hPgxWGlK7uWXX55WLSXFl/BnHWcZNOrIv63s4ky6YTbzsxIF6nIpKJNItp67dihLPDhVBajkIRWFAu2uyTff9i7lZdyF9b/WANpavHjryrXyyV8jKeXVlVbC74qbW4/RJYRpnI7e/e53H9kW5vvfpbuPVnKXcagoFGtvQV756Sorpdvc5jaKkVw+L+1qx0msvdQI4hwCrsTG5a8BTdpLxKIszDCstCgMt6W4Ge3xOWkf+9jHKr5xJVBJkVZlmB5d0sTFkPCL79jLcpR5y4te9KJmicnGGJ+Ozg0yGlfMZ137ecjNO9k+vStzofPPP78RiSsEk8BCDIPKQclYtq0B4Vnd3Ote9xr55kT+rS+WplYuNLGyCZdAHI0EHPKmR+DH6Sq9hhXPuYa9BLguh8e1WHDXBfCtL36TwKRveCYzp0kkDDRUEEqm1TIJzYF0flRU/v1vcUnjF43ENF0NARz9uvYY4uIik+kxXiMhv3mA+c0iL3oMN9mG8FtIj9ElIC3Zyqai2lppnzlGno98ibfHwB97LXBimHTBPA3P2mVySXn5Twv894bPfOYzVV6x7Kh2VTQy0sPRUzCsPOUpT6n492Cx7NHfVoaFGIYKQKhYCWwXc9vL1+a0nNX1EnVSQAGlHiDnx+kqefqCHbf+vlaONrcwQxvLeP/Hy6QZYxgYWdRxX14LMYzYZcehhGt5nCd0QemeQhc+aRiHRmJriUMJTwn4jYNo0ONwh6QrH62d4QqXLX+38U3X7cNbPuDib+t523gtZI4RhfGwKcZ1+TmgAqgkwIpOgcIf0jUKk4fmKd26cikLlYecVKBlio2mj1GAA0SjUGbTDI9zF9JjKBRnHTyOOfvss5uZP2mOoXE8xc+/tOJ8wxagAlSkfKOrQqJx+FFXvukFxNZkntH1807rYo5hL6ScuMhK2RgCcJXRcoubEsIfeCEj5Ym6ieUL6J3ehRoGBdx7773TiavH0UrL0jUeSWMsT3ziE5sCx4JLU3I1CJUJHUtTPoXNUTg7oN4PgT4aBGFOOj0gtBKJnxVQkRqDPAkbj6uhGEe4BBgAtJbVsoPbRlPiQ9xgw+jKwEc8WLrdoBMfwviZWEWgMDzTB+K4H3Hwu+ehElUYfKlc85HO/HDJk3RbHDj0Vrks0kaXCZx5TtLyIq+S38ozj1y/xPMzb/xtIA/Sxc/5tdHm8YMNI2dAmB1C7mPwbW6HgRIerZHnifxbJ1sf708/+MEPpl090gX45K2XYYcTViuYwzDesLCKyPOVVn78BwW+0ActebOjypU+Ic/PMKsV5MWQouKlm9YdxzOv2Dwc8+9Ki3i9/LVgDdRr3+TH5ZPRO++8M+aZfvhzEL++Gd3gid/lnnjiiYkVn1wufWa6ixa5AD4nHeXroiHN73xDy+eb64ruLTOfjgYsr36+P55/z5xPRpuePNf+2aA/GV0rcBBgoXTV8S5jHwa+XWUI8LS0Dx04/vcCzjPyeUkXD47YPVGFrvQEsY2efx68scFUQ0ndGNIkifFf4FCKq3vee6RLpiJ4TiAwbpeAiR60zAccCngCwP5GCZigCtwBjS/eyJd/1xWNNs4p4s4nzxE5k4lDGVf7vWXOcLKxwWDDwBgAxzPG6wgYBJdc+ee7TCapAHoI5geCtIZ1t9pqqzTfoMKZC2BkrB7aDEM6XC4Yv+td70p5OgdhmRkNQ3yMRiAPPmUNrpNfLuZwuqphiOu8yPBKdgcbxjhlsFrAONi5w4gwgjvd6U4jZBrXSGQdwCC4SkfLtnLjm9IcP4apYHGhBfKeSZ6RjtNV8JSXtNgDEvZ0lbJtLDD1zmcfZalYlRp7jHyZCY5DFK7LLmn7uNDkPRl0bbyiPCX+szztLPFfH+OmNoy8UChRRbpBZVjcth7DdCoVWirM1m9adOUf48Bnklky2LZ8jSffkkHJvytNnJXiTtU3lloap5K8XWWb29PK/A1ppGNVIzBJ5bNNnnTyWouTzzaIk0+u4nHzG6CHwhjzfCMf5xPEMdGUFpkB3RS49k9bjxNxVop/sGHESi0pgWVhvIpXwrGF5ml9TlcjTewxqFx+fYDVR1yV8FG5aT7i2ifPDQ1nqqGECp6ke/VsgsopzTG6lBiHpdhjdNGYhlEjc1yVmNbH7RrW+tBvSDhTGQYFpWJ5JjjkWd0ee+yR5g6sBDwn6aM08tl+++0TLf/ViDcmfYH/nypAx/vVvsD/cgWWQ0lfjdV4tEDOIPgEQf5P7LxUE/9Vtv+miiygZf9g1113TTua4EfcKAY9hd/ppOVTSZyxvPjFL26Wk+DnPAhzzsF7VVo8k1LCp5xySsU5TQnkgevnlsFDXodSe8o4Vynx6hMX+YrP3IunE9MAPTLztEkMemSOYaERBmbsDQhcXWe2794AuCjHTGn97iNIM841P47B+fUBacQd8v5UWaXlXsZQiJWIUWA8EdiDAQfQzWWO+PjVo/jMnfig/+GHH56jDgpz15PH28961rNSg8jL38VsraGEVkVBKODd7na3hpYjdT5OYiEpRGlJ2BCsYA9lR8mXXXZZ+pisRWU4ddsdPVHh6kuckhv1CD4rMS4CTwssBFjl8RWCmEcfvo1hUFgrG5cCxrMHMmF7mi1mhLfgfTJZSTiWnTK9/e1vH3mU9LSnPa0pqrpsIgZ4+jws6stOXsg9BIpDCb0GLYL/P8qEz2UgSzrGPr5Lwa2mIV3TEKHWV1yVy/2TV73qVWstcYkD4tCAgUjXVi7TpYsrL2j4J8cc9PVZFVEnp556avNgm3nGJNAYBsI5OYM5BWL8ZnLHBRwPlOKrKCY2GxN4UlwqM/9R2gmu+kOn6LEPgNfW0Pbaa69BH5nn2QE9/DTQGAZMFCwW5oUvfGHaBSxd6x9yp2EaIddnWibo/BNBP8cUZY16jPG5HzyNyN4j4rg7bE/exTenn3TVNGIYUZgoKEtKtqmZyKxevTqibdR+unha8/Of//xm0mlvgWLySupSVldlS+cEssRX4xI3d8el5/hFwzBjXYjoOfj32+xXcKOJG9ZxSzpnvFLD7LbyKp+lLvpgT8Se1jJHvRk3zp2EZhxP0uMcQ+PQ7aIvGkZOYBfGXgOXaZ70pCelZ/kx05xmJYdpuRoDSh4H4tjic3yNQj2TblyOO69wL8OI3SOCUUA2uphFb0xgxVJuJ+p9KlCcNn3ZguWPTjWmRem3l2EoJAWMCqEgFnpRBZh3vugiNpSomyGysGPKnlAcjln1wJvrByUjmqeuexkGBUYolUAY/zwFJc9Fg+XHpeJsGISH6oN/v8WXClk1MCS7esDPas8b7Ysqc2/DQEAMYcjYuqhCzSPfXA9DGwmbZPmnnOYhd988mi3xLoJSoUtxXTxWQhpl9md58rDx0aU34dTYl/oxbX31D+ox1tdCbAhy7bjjjuk/Nx533HHNsFGS26EkfjWwhLeu45aGsa41XPN3PsLnrfmxkxlXIIhgmB6IN7n77rtv8znJOYi4VhZLw1hLJbOPiJNUuLNJhrE4TyHOCa1xhBcJveYYixRwpeQdK9oeJMZRTnuNtjLn+G14s4hfGsYstNiDB/sVTlTpFfADVDZ7QxE4djc9xs/TvzSMOWmbS9MYQGz1GopDjaLwLibiGT9Pd2kYc9C2rT/2FGQ7y8o3j7bijEvP6ZaGkWtkQWGNRLdUkaW4vuLKty/+clXSV1PrCI8Ks8Jzv1nyDdKzzjqr+a6Z8SWXIevcc89tkkofmTe/BqngWRpGQSnziqKCMAYNwiUscwz8AkbBbxLwkK6PMUT+y6EkamNB/rzS+J7I0KebbaLzz/uGPuWE17LHaNPoHOLpKdzTwDjcx+C13kte8pLqS1/60sjpq6ewuG0QT2mZ7PJ/WLbccsumV8rp7K3y+E3qhMVuseUSLcNJA1TLBRdckG7K8Qicf2QT3TY1iUc6PQVG4ZCV90xtPIhfGkaXdhaY1taSJxFpEl7LoWQSTc+JZhadOb3EkJ7Coi0NQ02sZ+4klTnLIiwNY5baXDCv2MNMa1hLw1hwZc4y+2mNIcqy3MeI2lj6Gw38D4JUXpxrpyBfAAAAAElFTkSuQmCC;" vertex="1" parent="1">
          <mxGeometry x="-41.54" y="195" width="35.05" height="34" as="geometry" />
        </mxCell>
        <mxCell id="Vl3L8AfMYOYFt9SZZ3iY-10" value="Event Trigger" style="text;html=1;align=center;verticalAlign=middle;whiteSpace=wrap;rounded=0;fontSize=13;" vertex="1" parent="1">
          <mxGeometry x="-11" y="203" width="88.39" height="13" as="geometry" />
        </mxCell>
        <mxCell id="Vl3L8AfMYOYFt9SZZ3iY-12" style="edgeStyle=none;curved=1;rounded=0;orthogonalLoop=1;jettySize=auto;html=1;entryX=0.032;entryY=0.398;entryDx=0;entryDy=0;entryPerimeter=0;fontSize=12;startSize=8;endSize=8;" edge="1" parent="1" source="Vl3L8AfMYOYFt9SZZ3iY-9" target="Vl3L8AfMYOYFt9SZZ3iY-2">
          <mxGeometry relative="1" as="geometry">
            <Array as="points">
              <mxPoint x="-24" y="244" />
              <mxPoint x="-29" y="280" />
            </Array>
          </mxGeometry>
        </mxCell>
        <mxCell id="Vl3L8AfMYOYFt9SZZ3iY-28" value="" style="edgeStyle=orthogonalEdgeStyle;rounded=0;orthogonalLoop=1;jettySize=auto;html=1;fontSize=12;startSize=8;endSize=8;entryX=0;entryY=0.25;entryDx=0;entryDy=0;" edge="1" parent="1" source="Vl3L8AfMYOYFt9SZZ3iY-13" target="Vl3L8AfMYOYFt9SZZ3iY-29">
          <mxGeometry relative="1" as="geometry" />
        </mxCell>
        <mxCell id="Vl3L8AfMYOYFt9SZZ3iY-13" value="" style="shape=image;verticalLabelPosition=bottom;labelBackgroundColor=default;verticalAlign=top;aspect=fixed;imageAspect=0;image=data:image/png,iVBORw0KGgoAAAANSUhEUgAAAMgAAADICAMAAACahl6sAAAAgVBMVEX///8AAABnZ2djY2MHBwcLCwuXl5ebm5s7Ozs3Nzfz8/P39/fDw8PHx8eKiopwcHBBQUEcHBxMTEygoKAvLy92dnaPj4/Z2dknJyfk5OS0tLRra2sYGBh8fHwSEhJHR0epqamDg4NTU1PS0tJcXFzf39+wsLC7u7siIiIrKyvGxsYGQ/QhAAAI5UlEQVR4nO2d6WKjLBSGgxqN+45bjLjEpfd/gR+ozaTTJCVqWjofz88Zm8OrcnhBlt2Ow/lRtLpDcpmHtm2HuSUjI9JfEibCYaw5TCmjrtY2+23dsJpgDz5zOgiyuV0YUxbV040w+6CxjNV3LbEcaSp1UDRZWFoQWlYZCpUTT9r2nrLBPdMUb/65wZnDQKvMs6YIJm2SYyUrfr/2yG8cbN+8VdjEkMWBXCCsiYE5i+RmBYLydiuMZvq2Si7w6qUBcnyHmvbxDU98LHaPloYg+BKQPP/xzdDaBj+yfFkAC0glzWtzFgHoloUgpABQPVItl4C1KIJLXTwLVIsijBQAUl7ZAXdRBAkgyitDcFgUYUSlfmMQ2C+KgCuYcKa4zizAOiF01Zi8wUuFYCmO/FhLXQY4b60TgsOo1mMtZ9khYZYKiTKS3d2qbG+041qN8oJk+WOZrhOS5kfSUnk5utGO61FbVi5pYrJosRB9p6HmOLfjg1M1mR2GoS003mFuD0GfpbudsU6IudNToZ/DxI7XCGOYrKmcYW7rjw3SdtoKIYQIhd4gfXYoQZW3U95cLYSQtHl1wwrtBy9E0XjFWiETWm20vowNigVlPzWi65dgEyFzmMhIL2Fa48O7to2QR2wo5BFcCBfyFFwINVzIc3yHEBrLSEDrhLSUVy63KD1dh0TZrxNy8qku7PrlNh6o8ledt6gkLmmdjQe99dXDT2Ry3VIhkLhO1Z6tzif0WhFiMmyQr+xYkSGMWPDrO3UyQnZAXDhcXtl1VI02Tho8oZRR2hmmaRpd68NcLCa/ehSN9ZW9E0eXK/WFmEO/HcO8dSmSS2H2q/uqXZm1dKOs+hvjZqO8Bo79oS2yVg2bGxZ76ipU0wjdBulXr1OlzBrPOaiqeii8xi797s9rvVn6jTq/tN/D4I5JVirpnz4db0e4kKfgQqjhQp6DC6Hm24S8UV65XIhNGaBYJ8Sj++alZ8vdb+x//VAS67TW/R4pvqtpSrzc/Q7ErCl3vO9IDck3xmGdEBxGKuCjUexIIeZ1WF5HkDMOjjoZTOsPN01PzNYSx097UmWsrexdRX5ofxCs1kw+vANJncLMGa2xg1ZV9kQZh8KnYVg3HoIgGPrjZYg2FpG2RdbSkBhfwhz7IVCDIHYvYdxGSTbIWkkHMy84XptsyVUrWzbmWrpN+tUM2a5U90OYY+BlsJtfhs3Sr5ZEdW3W9Tn56z+2bUf0OUyU/JXNmG9H/pkGkQuhhAt5Di6Emj2gncDUAWdRhJEDMCivXCqkoLWlUbB03g7BBgHdYLnmgWJRhOgITvkjxzhhihJQV0w+0wIgCV+/XVF4Au7XpblJUpGB3TC9X8ozynpsJOxVM/W0TCITD9B9K5+kIRn8rZZPcKuF0Xi6hQ2REV2ciZbUBrKEyZX2+coJdPh+hO7ksgXrOgz2KgaCdjH9p7B4At30Y0buXE1HkPb7/ZWrO3pfTIahxiy943WY03WYk5PTJoTHnFNoV4f44n/37uA0oWKsfhQfSTo5bJzh0kmQjsOhsmFK++HsGXRN014y4fdHwnA4nP8vir0wFSc23Uf27yIG+3yB39LyPQi2L80KIg838/KTqV+H2ONUr2ju1mAcsO1Cz/wFwn7T2W4Byna0MQAqtSfqVACG9JXlWYGCfV9B5SLrAntqtqr5B/QSG77mywR2brCjtdg2U4ktASl8mMA0com93SKwV/HF7dbJd6GGtVR1G9O5XwF8l7YaMUGHu9jBjZSUDvjfVyxj+gH8G40EeVLPNTUsMDXbV+M3UYXrDmQ7Vd1GC3F2yuZcnGTSMjvGBAlZFkWWABJzCMSNxyq+lXo0kzJu8b2Fo4TMYJBpruCwzbjUz9IC6rnWjAPAT5dgI7gQ1uBCWIMLYQ0uhDW4ENbgQliDC2ENLoQ1uBDW4EJYgwthDS6ENbgQ1uBCWIMLYY1/Rsj+9NMl2Ij698x04HA4HA5nYxKzVaxQaCqvwHhVI4SW0pq/aYZQ7YdefGfPLwCk+LLtLctE0Hvfalj1hNxSUJt2mLRFipULnvq+DbIHGRajWcG4arEq23v74pHN0+atoUEA2ZxQp5NZcqfmiy35Z85+cyKz6xic4hgNAHjpEwXT2wLQrjf+RrQeqE8voTAD0LP2TCA4LCiSfgDy9mVZhUB9QsIHLJBtXZKViMBd8LpHLhC2L8sqyAzfZ6dZ6xbOc+wJiXHytZ+o76aNE3DMoBDFIHtYuaJP8YqdfZG0iY4hsygEuyx73inAlrvbx0PpUSfP+2W5dr3bMSoEU1uXnQJO8WE87yHHzCdLvB/vdKzmDc7YFUJIUksobvtfKS4EmP5xMWwLmdGitxQp0CoxFlRQ+hZ9com/QggNXMjL4EK4kBfBhXAhL4ILYU+IuOTPGgaFgOf3PdMzFnuI5FyNp4YONYsYfvaE2AeyiTHdQON41ig5pNBmUIiy68ihryAW5ZunsV7Q3uRpl2KvY7Kyk6yVyMW079rx0OQyMurz+569WnKuDSTnzWHqQO698dAcVoXsyInFsAnufh0Ze4lBA99HWxgWMnE2/DKrnKCfd/eT9qc+cKqs9D/uwMe8EFq4kJfBhXAhL4IL4UJeBBfCnpBFn2chg0KCJRtODgwKAf3TmxW2PYs9xBMAwZcHc16RyAPAf8SeEEVxsV13LJNiDEJ/K8mX095nsbLjrIWK8fQhVYDdvU+7+rmDwnRIkdeymbXG9KshYZg7gq7qNXZuyYqPUWQrtxtPfT+4aBDQmBuYFULQ8D137hwzCqTeEaBxSXBMC5lJzNSHZZiJDUbMwhL66ae5mb9BCBVcyMvgQriQF8GFcCEv4p8RIiztIbI2XVYB/YKlIeceMLfn+gGclGeny8qnNUeSvQitws6d4vyuC3V+BKBiceVFS1aPxHZL8YolrU2+It7a/5sJDHGaCOvl/tsdOYnh5940qVZkeg/gP+d3Sa5aNEKYlxamzEOhKi5HtO63OmHrtUQob9Tjrf4hWXrV5L9grdg1elJ3SIH4WWDyEiqoq/8+x5bDYZ//ANiElpvuAYrNAAAAAElFTkSuQmCC;" vertex="1" parent="1">
          <mxGeometry x="432" y="94.5" width="89" height="89" as="geometry" />
        </mxCell>
        <mxCell id="Vl3L8AfMYOYFt9SZZ3iY-14" value="Data Join" style="text;html=1;align=center;verticalAlign=middle;whiteSpace=wrap;rounded=0;fontSize=16;" vertex="1" parent="1">
          <mxGeometry x="433" y="183.5" width="88" height="28.5" as="geometry" />
        </mxCell>
        <mxCell id="Vl3L8AfMYOYFt9SZZ3iY-24" style="edgeStyle=orthogonalEdgeStyle;rounded=0;orthogonalLoop=1;jettySize=auto;html=1;entryX=0.5;entryY=1;entryDx=0;entryDy=0;fontSize=12;startSize=8;endSize=8;" edge="1" parent="1" source="Vl3L8AfMYOYFt9SZZ3iY-15" target="Vl3L8AfMYOYFt9SZZ3iY-14">
          <mxGeometry relative="1" as="geometry" />
        </mxCell>
        <mxCell id="Vl3L8AfMYOYFt9SZZ3iY-15" value="" style="shape=image;verticalLabelPosition=bottom;labelBackgroundColor=default;verticalAlign=top;aspect=fixed;imageAspect=0;image=data:image/png,iVBORw0KGgoAAAANSUhEUgAAASsAAACoCAMAAACPKThEAAAAwFBMVEXl7/Hk7vDm7/Hn8PHy9/js8vOR0e3/bXDw9PRQaonr8/Tz9fVZcY7/a27t9PXy+Pf/ZGf///9cdJDk9Pb/YmX/Z2pTbIuJmq7e5+q2xM6U1/PBytP7hYixvMj4+vn+dHd4psP4lZh/kqZke5X8fYC0vsnwwMPJ0dh+sMxjgp/o4+Xuxsj4lpnzr7LxuLrr19n6jI+KxeH2oKLR2+FEYYPs0NKerbz1pajty851iaDzsLLn5efp292Vo7R5jKObqbmsYlyAAAAYL0lEQVR4nOWdCXfiuLKAjWyGYPAyESZkQkKnQ5N3sz/I1ll6/v+/uirJi3bbWJC88+reM90NRpY+l0pVpcWe11F6nWQvt/HCIOirRaIgiIUP/JAXn/+KfrIdIGet2MtdeoSVrxapsApE4W4eSx9sK98fFTQVqWX6jVmF8gdbyx5QdWQVaFmFEiu4rOiGvoCG/CN20gf3AqsTKlALtaGgbWLPJJf1uC/5z+M2D3Y3DVGKQvp/dEKFkiTQGSy5V/X4DypW1Fh1wSOKM1h+b8aJ53e/AblFQlnJvRB6mWiuPD2rUN+DvxoW2oynnIw3LlgFOStBN0KNsTbolbYDfwkrAZZ/PBxzMjz2u6OKgyRgrHibE2g0zaBXLq2VY1YX/8nlwgmrkGiVT2AhUT0oK0ldDHrla43dl7DiYRFW0x//5PJj6oAV2PWwR3jRwbBqsh9rFMtg20Ontr3bOCWx+isXjtXW5YNdj8FkBbT1gn7Esm3vWXyGbzEQ7pYV2HVirArrLjZZIQDdspBd+aLd+yDGVlZ42zsklTBWkmIJze8ZYxzfWYzTjRWAQq93yMIK3b3OCM0tCg9jKkSx2F8ENnKM48UmVloXY9+sCCf8dDtP08k5NrLC55M0nd8+4e14ATIyDqrDvhI7e0JORrzWTU6mFSvEX0v61us6S7MoyiY3FlY3E7gkzW5eve1oEVa+Jp5SWO1Fauqqu5io1P16QClMFutV1Qf/Yag4nwGt1guGa7C+30a5SBcK1eDz27EyXO3h3moJ7U+zh9UVrmz7uNKryhcl31+tHrIUuC5Xvda0UJB8Q1YNr8e9twFt+cM1yjmB0BinjAYrVvQnGF0/ULqDt7a0POplyZX4WlYNr8boBYzUZHnHg/KUePCRZ+VBr53dLSfQF19m7WgRZ/R7sWp4LfbeogxU6kkERQT1Pn9y8ikUSW9Bhk1Qriy6JbrZXOJEk1ZRx8G9SHNSHr4ekLamNx8KKSJIGLVDoX2F7uKPG6KV2eC6hWoRVmr46ztOtjSU5qSu5qQTTQiprW8FtM6hkPlVY9VS3E4Q7YffR/AbbeT2pIpyPijy20q17H6Ln+hZfYVeNRP8sUxZ53FQFnTldElUq/zIBiupUgilqKxiXnzlGwfVbir4DnRh7dWgQkxqS/PWpLj0ji/NYrA0+TqF1e7nUhsLMTLZ4l5LCgGiElNTWveLLJqcix+2MFjN8wzu5lIbCb6Cht2USoUaSG2Z3g3gv1LwK6jAl1KaqszcQ86mED7XBz+OyWetG72d4FfwuFe4EaPGsDy8Au//VdVVmVVPkzSXWdnyok5nJ+wCpipbfOBWpJrwwh+grneaji2yUjqcp/nIPJeatG/ytoJfJoP0ARlR+ZWQv7fSLYwe0sHkRWcFBVa+qht9jb0q/7G7uVSLkNbi9WQwWRv6n6+RVh2Rll4Dy2PGSPxawbefuVSjQGPxDXnyt6pS6ShRxZKB1dwD3xKtvbF3Q820TT7lQG5UXG5mtQdrRVuK1wTVHbYyMmJsxItYw0G6tmqWpxsJi/x6Ubh5LnX3ilWhWmEtKL31EonpvpBvhFd1sDztSBgLkzsGvaJX7dpgMVSkg1RaVc9J+spyJX8r0CyIDjVSGqxQN/KH/LyfwWdwvKhIJwzVqkJlA2XplVYNLG5GYa3MsOAvdeoBepVPksWaudQdxoMM1T3pHC9YgsEzKr/pk/+XIl5oU8bidviFdHV9AFVk1+I6l9IY46DdxjisIe/Eq77BJpUqP+vrpbrc2nfZDfENiQzeDbXpFSysirWfuVRFWCPwMsqW2ErKgMlGS8VFb4mXWbS05jA0boMowgJ3X/mmKxS9sCbgdRYN3i2k7KAkWlZccNP3QZRpB8OyVvvzwFsIQ3VN7O29t6VKaXFZTBfkaMj9rIlE7VD4xZIbKxrVqm1rR0qmZbRdeYRuMllUND7WF0veAx+y7EFF1Z5UjkvRS0W5PHZLS836+81uNhCGagUPWW7UdqAUWCUuCRaost7LyiX4bnM3tNqIVPsaa1A1Q3Ogo6VRLkmxrskDsplv/5uZd6ZWN1wPbI/KoFo6w6X0Ql3KoZA9xCuthFb6fhKl761REW06yMVCSxoVxV6YRmTstcj36oVUreZRdotbojqQxIzLDAvfZtHcZrFcL1fvJLTGr5No0VKrZFJWWkZYnreIJprJilK+Uy9kT3cZpblh16IKCxh0efABD0pZOhwECfumnBGGAMRo4vF1WhPq7Hla1CJVfS2o+pe88Co1urTJyQn7A9lg0edkqaFmh9cXSV5d0g/MHTD4PeTlz1mJ6uzPsIn8TuTxkGNF+r9dsfw9pdDrpKqtrFacxUnGgkxLVmfPw/G0JDI1CPlJwhUuKZbHnpStkvqNqnsXymouWyvfZwnHgtXhePyjEPL3gtXZ5XA8fP51WiPj8WGSlw7FhhqLZR0KmX3/+sEQHuwHGQQltYpnx8/Pz8dxxSpfmv3XPxWrEZoSVH9LcsaksPRxfAasmO8Q01JnsaRYZCj8sFdzF/MNvVa73T3KCq+z7E1Uq/j5EXrU42WssPqrZDU6uxhP/4iEqIxGo4DzIBLKCnyH8PKRlDp8fA5FxbrL7Iksjw2GbmGVkyCNhUWChcteoDplZuhxw1gFOlajs8/h+HCkYRUYWW0ewayNh6cCLHDerVEhSOC2Gwrzts0EnuoqJSEZj8qPp+Ppv2S4n+V9UMNqNDq7fBxP3//WsALFog5WxSpgTmk4O7k8+ZeUHgq9kASjdrcBxCksaaVJI4GKPkTpq8ezCjfD8c9Esu0iK0Lj7GQ4Ho/0rAIKS2VFBtcwTH6OhxtBsfBrGlnzWFQCd6OhvISpkbAOMPBEa3U8nJ4WnLSsRiBnP6fjC9mkAynyNYMlseqze4Sn0+Gx2AnxgJiB2soGrhZWqWvjmgjrgmupC5LGnNSzGo0Ox8NPPSsCS2CVcJFhCI9C6oTrLLXm/JjEbjx4BVUzWLQLTp785qz+qVidkb46PDH4DMEZ8xmIF1ay6ptYeU+TBp2QbfvuPhxuywpGwUjsgiqrM8Lnfwrh9OrsF8DKIz+zCKx8jlUJy/Oi+pEQhMLqGu9oWDUpEZ5odi52QT0rPmIpWI3+/iQOQK1UrKhixSorhM+zyVOTdtLp9479UMeqHhbNtWUrDatjoQ9eFLEei4RLVsQd1dKRAsLhBcfK71esSlh4lWX6dTN88+hf486qpWVVWyCLBT/ELqiOgwczLrr7dYpGFav+L1XUiHBWFpU/il+xyMq7MseEUnuY0eqiWluyAnM1wHWs+gcBPTQhKV1NjpZWqtQf/aMvszoOxdQMeA06g6VvUdCJlh5VLTaYk1DMlR+fDKfPQV+AxWX36sSaUobin4k5DMXUjEcMVqqZo9A3hKnWto7plqionXhTWG0srGpRcaz0k4bA6lJh9QZ2s1G76BexSKtpi5uw0v+KOYFPnsiqD6w+Ez0qF6yOpiTGkVJ+3lOqyTVYWoMKWrrvWdnbsTL8ipr2yTuSWIVfwep9ojHuthb12EkoSYyUL3NTudXZECZtJFVckGBQx+rICSstLD0rbxAt2qqAH9P5o1hSLi9gA8s2rCyoEDxNfvUwzQXMIM8gsILxLElImBc0GAdJNUfk4mIgTARkvg95hpkvswINlwfC+qYhSisQcXlwiBas63OHyqPpY1gfWsfqAAkxS59XIltwU0qvAaubTEkkN2kdCtlBUEkQ+4XLSo93gN1izlB5NHGUvcjuFWUl9MFA9M55v/231m+X5SLgWR0RVn2F1UuWyrM5DVuIwmIuN+7GyhKRMpfhTmGljINn8pxXgervf/k5L1OMA3NenGLFn6K9Yvs5IenOnIbycIM2rYxpbw+6sbKhgmgwvfYUVrIveibPeRVadTIcD0+l+EYNcbjYmdp22RedL6hE0YD+OSj8rJYN9UM4sacDKzMqMFdXWSQm+iir5FOTZ9Dkr0akrw5/yfkrLoE1ojHOmcCq74fkUXzGJSvIXVEZDNif2XILxRLavANWHiIeA2z1kMJBNB4/zvoGVlxeFOa8jtR8O82LcjM5gaRX4exxPEbVSjZvSWrBSbUqsisrdhaBE1b4IaN1u8ccqzCZAYKgntXZEZdv17Lqa1jRgZD8cJYUqVHYrcGh4jaAdWXFTL4LVvg2pZWLBqhiFW5+DscwTtWyAmM1Ra1ZQSefwS1+lnM5+GlSoco47/3bsIKl/2X1SlbxIRm2DmdxV1bc3ITCCsUbSLQelnM5sOsrF/LgPBesEIsHwVftzgpfpaXmp8THKlhdwJFWlw1Y2fugiRXtd/ElnJ58Uc17EUc0RzXhz65RI72mrMoYxwkratc5c5qz6s+eiWYNNwIr7Vwqkcq2i0GOOj8osOpviEYePs+qIQXWFUl2vYtiseNcE1escrteatZHabDikJjeP4mJVbFOxuQzlLyKKa+DM4kVSv6Mpz/9WMhfvWeRaNe7sEIhvVdbVgZYhV3nzESZaAjDQ8lnSOQ5rzzhQH3RX8Yo8JjJiTiPQ0z74/gwn5uoJifuJ6Jd78KqaHpLVia1WmaiAzh54uZxnuV5HHHOq1jXN6JLZZrMeY3lOa/nWIkH37Jo0T7R0JxVnMSaVFcTWPdzKssoWtK/vHA758GxfuZZKbFzmcxqGjvzc6ksxpH0Clb3ZerZKQ5ZBWrypiErOAOUCK0gFX79I8TOgjMq5WS4zF+/VU6GwmGxs8LqTrekwSGrMD/Am+AyqJcJlcdi5yfIyYjdAYIQOdfXP+BWryd84hOGvCCgzqe4yL1c5g4L3XmHAcU0fyWhQpCTeXLP6oCzVyjPo2rzznZYiOX6zssNzmWYo7KqoNWL/oe1rM7VXN/WHlbedHZkt/AZitkzzVMSbVgh2AQgL6O2saqHVYeKZ4U4VssobTKZ2oaVPsYhvjykuhKVlpUVzE1EnsyqD3MTgbnNHVBRVkelvapQwUoZdW7CBatA803ILJdEy4yKLW1/iCZXntQJgdVnbG60hZblN+UdKlacWnlX+hVYnVjRW+q/o5MaQSJ8W8eKZrklxapnZd3lVbc3rhoH+S5IM/9OUdXk+nxqufj0Vh2rVZrdyqzCS/CvanekNtQnjhUrns3Ry6xutasgd8iqmDCLm7LyPmAFsLS/lvmiXXbv2lBVvijfBWE1tGbvxE5Z9WDqmnTEYrCtYYU8EutwZ+2wxtA1RT63fSkWNgnyWnQQJILki49KV4v9JebJFOuQkcAqijJNHXfMivqqSWHjLawK406epwgr/pWzKmFdHvGyqWAlm6MmcsntHwRW01+hiIrpt1tUzeYmEF0ihhqxeoMZQpEVffAxt4cwORTm+6oMywEaT5vIYcKBydfWimp1B2ubvoIVe4UYHRDrWMEG+gcaN1ewclbVQRZSnqGaGQ1+N11bW3HxGSsksnrQbqffC6uen5t4GysGiy4+FGAxg8IdjwKs/reQw4pV8C/hMIPfvs8MstlsZrBvoiTla1h5dCmmpn77YcVe5FezI4N2whvmYVWnvlBWJ2H1kZJDzlklJ8Px40ZKIheRM4TMYR+WqyQcK1/PCrwrzZEW3VC1mUuFflizAR2xvNGNeEBf0QfLz/SsYkghn/KggmBUJI7j0lPwg4qVr2VFD1nTbfTaH6sevPPQvo0Mse2DeScsYIUscVmpgswqjxUvxtOffxtZxf3c36xY5cU/sy7OsfIy3Srkjl2w3Ry9n9TAop3wHJ4p4huzGY5/J3EY9vMPtXoFGzLH+g5IU1aUFfy+YEWLhj75ezzcCGEz6Pa5c7VquZ7B07/9V+yEr8VIWMKKD8fTP6enp5f509ezgp1Ll4JaFbDgGAvCiqEuWFFUl6TUP9PxYcyjoqNg/UHlO2bVQ4n90Ix8JIRcg2B9H6mT8LhhsOR9qcxeJUSxhkicHCxZUWtVsUpyhX2kTscj1wWhFlcT3SjYFVX7dTJ1u8horiGrpiZyWNRtMrLKh8d8s2WlV4GOVcKzov5WhYpWgVXg61n16MYoCyuP7oWJkCfCCjfHx8c5KsaqkJKVHyJuUZEwl1q8dZhKxQrlpYqoIM2XXn0Dvco1ywoLP2SpcrA2O7MzH8kIn+LVxP+BcTC/CgaB6Z+jnzVSsIIfCefwsPvju1R7at9XsEK1G33u4TALJIjPi3RGyrj0wmPx5WdmSXykSn53OMrCeXyzJav6E81hY9zKcrh9fPTIhXePn9UoFn8+akNAUR6PYqXwCtVKvx3ua1h5YY3ngJ8mMDGgNqf05IUYj/cjQ0McKEqoFl3dnaiVOjH4Nax6Dc4mA8W6076Kg5oZXxHkcxeYRVeihIpYK/0uyy9iVf/KGGKx+KHQqGDNxVyWoFQeivSHG3ZHtQ0rqBmqMVkk0MnWda/D6YxIJeXBwT+a8OarWFF9qjNZxMeafLR6y5IIphklmZQH50npfCsXqLZmVXfKPpxdudzmPUstxFNRwYnx2v3zX8WKIqp1HBZR+tby/V3tSOme0FuqnZl3gmp7Vl5oHwvBb6gWquyIjSykB+7IX+jGqu60XHgrgHoeo7bN3SHlsjS8GeALWTFYta8kWNS806CeWAtMHns6u+uBnVjVveui/p0GWtmOk8c2bmhf++IIVSdWdYpF32mw3Tt3tzhnCX8Y3kTojlXNGgvrYSl1b+fBD5p107sSRLq89swrV6iKdX1GiQ0/Y9WrCQtp/e3HojoTPDc9F3esApvoV/xVsGrfzgMbVbUhh2shQVWU7cphL9psjcYCI6tqKLQ3gXhZ+rfduRW8TnWelUNQvTrbzukVTXULs5FQGc0rW6VGXNO3n+0IUXkXePOZPOS6BdWCla8zXyzSsa9xoG+72zEseHetPAQ6J9WclcdW1QWSrW/wJiPzGzqdoWJvGd0xqRZ9sEfcQ1j9IS0K0L28XAdrhwYen0uodsEJpDkrkDgJ5PXdddY9h5XN3UPKGzDPAFWvXBvmkI4o7ViFgbLvhOCrPbuNvg5pccW1xxkq9p77FXaIxCjtWPnqrhPyUf2Zwvgpo++N7zmERe9O33OfPe0FFUzK0P/pmcmskGaHDt3NU9cu9vjJcOgMFq08GQALhd2DeKFNmrCKk8S6r4J9jnsP6SCdQ7OcocJXc1LmQ88lKk+vNewNCWJIo0htH4Slkbq9cz0OFP0nvp1EMGvoOToFnM4ERvBW5w5o9LXWHsheFw8GkvOpY4WMAbYk+GmQRaBaLlB5oFRRNnBtqsTnIXwo90ElIhRL0oyDucFqIrh3TlRr8tLrSguKeoGizp32PxD5RupnGpZaIazU/XOx4qAaK4Jfo4wowwp3o4XxiqhoFr267X+0iioRcz2469WSQtUXNSibQXBvDVZr+dqBFsavS7BUa+dK1dt+4FFLIo6nqkKNDRatC/6YQ+9ZXmtpiRZBT+p6CQXMP9wrVW8frIxZLl1tiFpAYxd3SKE1+33Bye+ZSgrdLSjqHXQ/VjuHrBLNfl9LRlArRDUWpBNl2fpeVC5fXNY3PBZTGBjfrzPip6cLopRbsqgTp6w0Zry5cS8qREzOfEKs82Rx+4ErXsDqsBSBFbnq43ZBfzMHY7clivqq7ZyVxuLXVIg0/SaFWG6yeHlFOS5g9aNYy/2jYoUxen0BUFGW3nzQi7dE0aRqZrGFOIp/pWfVZiDkKoTRas7aP5m/vOesphWracHq/WU+YVznq8LGdcDRoGoGaeW361npvPlG9cH46o5hSOnMnp4VfkgZ0Lsrzrx1IlJftdaslHgw1I2DEFE3dxqkCmH8fr1eTCZrC6v1ZLJYX7/jPWSJ7WLNM8gjnOyLxlKk3QyZVANitq/YCk9DH/Tur7DqjbkjZKpYG9Hm+ngc6qR1k/HQfEMTK0PtXEsHVBpWSDrSKC5PUGD/baRX/09YARzhVQIB5UMvi5u6745Y7T5s7siK9jrufBmIb2KalYGt4808Uiur8Y9i/9e+WbFCt13Vo2GVzz+L/4ZlD36iDX+MdTKyssQ4u2SVk0JbalePY1VWDEmsemFp1xv6WM5YuVoFyokLVmXVPPmMp8pvaOpi2W5Zm2fYLartYcmsYNN+nKhnHgaaSYwtWXlCErtujtY9Ks+OyhoN5r5oVRSdkUciLWrvG79op6b9baQTJMPqXattt8eD0oqhcqWHcFtq25vW0RmpLVl1uWENKnERDLc0jdMtr1US2Z20B9XAI7BdYo0Hw1gciWJ+tVVJy/8/wqpRoc6WTcfigvacVqucjKuqeK3fd9NMdsUqr26rXJ+rqnit9apZoZYNG/8FQlj3m5K7O4oAAAAASUVORK5CYII=;" vertex="1" parent="1">
          <mxGeometry x="250" y="252" width="108" height="60.68" as="geometry" />
        </mxCell>
        <mxCell id="Vl3L8AfMYOYFt9SZZ3iY-16" value="Data Processing" style="text;html=1;align=center;verticalAlign=middle;whiteSpace=wrap;rounded=0;fontSize=16;" vertex="1" parent="1">
          <mxGeometry x="260" y="316" width="88" height="28.5" as="geometry" />
        </mxCell>
        <mxCell id="Vl3L8AfMYOYFt9SZZ3iY-34" style="edgeStyle=none;curved=1;rounded=0;orthogonalLoop=1;jettySize=auto;html=1;fontSize=12;startSize=8;endSize=8;" edge="1" parent="1" source="Vl3L8AfMYOYFt9SZZ3iY-29" target="Vl3L8AfMYOYFt9SZZ3iY-32">
          <mxGeometry relative="1" as="geometry" />
        </mxCell>
        <mxCell id="Vl3L8AfMYOYFt9SZZ3iY-29" value="" style="shape=image;html=1;verticalAlign=top;verticalLabelPosition=bottom;labelBackgroundColor=#ffffff;imageAspect=0;aspect=fixed;image=https://cdn2.iconfinder.com/data/icons/crystalproject/Open-Office-Icons/stock_filter-data-by-criteria.png" vertex="1" parent="1">
          <mxGeometry x="717.5" y="35.5" width="59" height="59" as="geometry" />
        </mxCell>
        <mxCell id="Vl3L8AfMYOYFt9SZZ3iY-30" value="Data Filter" style="text;html=1;align=center;verticalAlign=middle;whiteSpace=wrap;rounded=0;fontSize=16;" vertex="1" parent="1">
          <mxGeometry x="703" y="90" width="88" height="28.5" as="geometry" />
        </mxCell>
        <mxCell id="Vl3L8AfMYOYFt9SZZ3iY-32" value="" style="verticalLabelPosition=bottom;html=1;verticalAlign=top;align=center;strokeColor=none;fillColor=#00BEF2;shape=mxgraph.azure.sql_database_sql_azure;" vertex="1" parent="1">
          <mxGeometry x="847" y="154" width="63" height="62" as="geometry" />
        </mxCell>
        <mxCell id="Vl3L8AfMYOYFt9SZZ3iY-33" value="Azure SQL Database" style="text;html=1;align=center;verticalAlign=middle;resizable=0;points=[];autosize=1;strokeColor=none;fillColor=none;fontSize=16;" vertex="1" parent="1">
          <mxGeometry x="800" y="212" width="169" height="31" as="geometry" />
        </mxCell>
        <mxCell id="Vl3L8AfMYOYFt9SZZ3iY-39" style="edgeStyle=none;curved=1;rounded=0;orthogonalLoop=1;jettySize=auto;html=1;fontSize=12;startSize=8;endSize=8;" edge="1" parent="1" source="Vl3L8AfMYOYFt9SZZ3iY-35" target="Vl3L8AfMYOYFt9SZZ3iY-38">
          <mxGeometry relative="1" as="geometry" />
        </mxCell>
        <mxCell id="Vl3L8AfMYOYFt9SZZ3iY-35" value="" style="shape=image;html=1;verticalAlign=top;verticalLabelPosition=bottom;labelBackgroundColor=#ffffff;imageAspect=0;aspect=fixed;image=https://cdn3.iconfinder.com/data/icons/dompicon-glyph-file-format-2/256/file-csv-format-type-128.png" vertex="1" parent="1">
          <mxGeometry x="987" y="116" width="44" height="44" as="geometry" />
        </mxCell>
        <mxCell id="Vl3L8AfMYOYFt9SZZ3iY-36" value="&lt;font style=&quot;font-size: 14px;&quot;&gt;Data Output&lt;/font&gt;" style="text;html=1;align=center;verticalAlign=middle;resizable=0;points=[];autosize=1;strokeColor=none;fillColor=none;fontSize=16;" vertex="1" parent="1">
          <mxGeometry x="969" y="164" width="94" height="31" as="geometry" />
        </mxCell>
        <mxCell id="Vl3L8AfMYOYFt9SZZ3iY-37" style="edgeStyle=none;curved=1;rounded=0;orthogonalLoop=1;jettySize=auto;html=1;fontSize=12;startSize=8;endSize=8;" edge="1" parent="1" source="Vl3L8AfMYOYFt9SZZ3iY-32">
          <mxGeometry relative="1" as="geometry">
            <mxPoint x="993" y="138" as="targetPoint" />
          </mxGeometry>
        </mxCell>
        <mxCell id="Vl3L8AfMYOYFt9SZZ3iY-38" value="Email Output" style="sketch=0;outlineConnect=0;strokeColor=#b85450;fillColor=#f8cecc;dashed=0;verticalLabelPosition=bottom;verticalAlign=top;align=center;html=1;fontSize=12;fontStyle=0;aspect=fixed;shape=mxgraph.aws4.resourceIcon;resIcon=mxgraph.aws4.email;" vertex="1" parent="1">
          <mxGeometry x="1115" y="30" width="60" height="60" as="geometry" />
        </mxCell>
        <mxCell id="Vl3L8AfMYOYFt9SZZ3iY-40" value="" style="endArrow=classic;startArrow=classic;html=1;rounded=0;fontSize=12;startSize=8;endSize=8;edgeStyle=elbowEdgeStyle;elbow=vertical;" edge="1" parent="1">
          <mxGeometry width="50" height="50" relative="1" as="geometry">
            <mxPoint x="-35" y="387" as="sourcePoint" />
            <mxPoint x="368" y="375" as="targetPoint" />
            <Array as="points">
              <mxPoint x="263" y="545" />
            </Array>
          </mxGeometry>
        </mxCell>
        <mxCell id="Vl3L8AfMYOYFt9SZZ3iY-41" value="" style="endArrow=classic;startArrow=classic;html=1;rounded=0;fontSize=12;startSize=8;endSize=8;edgeStyle=elbowEdgeStyle;elbow=vertical;" edge="1" parent="1">
          <mxGeometry width="50" height="50" relative="1" as="geometry">
            <mxPoint x="390" y="380" as="sourcePoint" />
            <mxPoint x="755" y="380" as="targetPoint" />
            <Array as="points">
              <mxPoint x="653" y="548" />
            </Array>
          </mxGeometry>
        </mxCell>
        <mxCell id="Vl3L8AfMYOYFt9SZZ3iY-42" value="" style="endArrow=classic;startArrow=classic;html=1;rounded=0;fontSize=12;startSize=8;endSize=8;edgeStyle=elbowEdgeStyle;elbow=vertical;" edge="1" parent="1">
          <mxGeometry width="50" height="50" relative="1" as="geometry">
            <mxPoint x="773" y="380" as="sourcePoint" />
            <mxPoint x="1040" y="375" as="targetPoint" />
            <Array as="points">
              <mxPoint x="1096.5" y="545" />
            </Array>
          </mxGeometry>
        </mxCell>
        <mxCell id="Vl3L8AfMYOYFt9SZZ3iY-43" value="Loading" style="text;html=1;align=center;verticalAlign=middle;resizable=0;points=[];autosize=1;strokeColor=none;fillColor=none;fontSize=16;" vertex="1" parent="1">
          <mxGeometry x="855.5" y="554.5" width="75" height="31" as="geometry" />
        </mxCell>
        <mxCell id="Vl3L8AfMYOYFt9SZZ3iY-44" value="Transformation" style="text;html=1;align=center;verticalAlign=middle;resizable=0;points=[];autosize=1;strokeColor=none;fillColor=none;fontSize=16;" vertex="1" parent="1">
          <mxGeometry x="497.5" y="559.5" width="125" height="31" as="geometry" />
        </mxCell>
        <mxCell id="Vl3L8AfMYOYFt9SZZ3iY-45" value="Data Extraction" style="text;html=1;align=center;verticalAlign=middle;resizable=0;points=[];autosize=1;strokeColor=none;fillColor=none;fontSize=16;" vertex="1" parent="1">
          <mxGeometry x="71.5" y="546.5" width="127" height="31" as="geometry" />
        </mxCell>
        <mxCell id="Vl3L8AfMYOYFt9SZZ3iY-48" value="&lt;font style=&quot;font-size: 20px;&quot;&gt;Data Architecture&lt;/font&gt;" style="text;html=1;align=center;verticalAlign=middle;whiteSpace=wrap;rounded=0;fontSize=16;" vertex="1" parent="1">
          <mxGeometry x="383" y="-154" width="198" height="30" as="geometry" />
        </mxCell>
      </root>
    </mxGraphModel>
  </diagram>
</mxfile>
